<svg xmlns="http://www.w3.org/2000/svg" viewBox="0 0 32 32" fill="none">
  <rect width="32" height="32" rx="6" fill="#2563eb"/>
  <path d="M8 22V10h4.5c1.5 0 2.6.4 3.3 1.2.7.8 1.1 1.9 1.1 3.3 0 1.4-.4 2.5-1.1 3.3-.7.8-1.8 1.2-3.3 1.2H11v3H8zm3-6h1.4c.7 0 1.2-.2 1.5-.5.3-.3.5-.8.5-1.5s-.2-1.2-.5-1.5c-.3-.3-.8-.5-1.5-.5H11v4zm8.5 6.2c-1.3 0-2.3-.4-3-1.2-.7-.8-1-1.9-1-3.3V10h3v7.5c0 .5.1.9.4 1.2.3.3.7.5 1.2.5s.9-.2 1.2-.5c.3-.3.4-.7.4-1.2V10h3v7.7c0 1.4-.3 2.5-1 3.3-.7.8-1.7 1.2-3 1.2z" fill="white"/>
</svg>
